<svg viewBox="0 0 140 140" xmlns="http://www.w3.org/2000/svg">
    <g id="Page-1" stroke="none" stroke-width="1" fill="none" fill-rule="evenodd">
        <g id="lpiņa-aplī" fill="#FFFFFF">
            <g id="Group-22" transform="translate(7.000000, 8.000000)">
                <path d="M63,5.33295543 C31.2234251,5.33295543 5.37575654,30.9801557 5.37575654,62.5015983 C5.37575654,94.0198443 31.2234251,119.667045 63,119.667045 C94.7712045,119.667045 120.624243,94.0198443 120.624243,62.5015983 C120.624243,30.9801557 94.7712045,5.33295543 63,5.33295543 M63,125 C28.258972,125 0,96.9660225 0,62.5015983 C0,28.0393051 28.258972,0 63,0 C97.741028,0 126,28.0393051 126,62.5015983 C126,96.9660225 97.741028,125 63,125" id="Fill-2"></path>
                <path d="M51.4622794,79.0450526 L55.4016768,81.2474322 C58.6990178,82.8910801 61.414155,84.0627895 62.5023864,84.2960465 C63.0029728,84.2906219 63.530765,84.2526498 63.7484112,84.0085437 C63.9334106,83.8024097 63.9170871,83.3901415 63.8898813,83.0755159 C63.8735578,82.9290522 63.7973817,82.2672534 63.1607663,81.431868 L58.3725484,75.1447792 L78.809533,80.5368122 C79.0815909,80.6073317 79.8651174,80.8080412 80.8118787,80.8080412 C82.906724,80.8080412 84.1255431,79.9292592 84.6642176,78.0523543 C84.6478942,78.0523543 84.8002466,76.4954997 81.6498168,74.6294441 L71.8720582,68.8414167 L83.21687,69.5845842 C85.7415667,69.7473216 88.9844961,69.9426065 90.9106656,69.9426065 L91.4983105,69.9263328 C95.5410899,69.8015674 96.4878512,67.7456514 96.8578498,66.2050706 C96.8904968,66.0857298 97.0102022,65.4944505 96.6021155,64.7187355 C96.0144706,63.6012719 94.6378579,62.5706016 92.6246299,61.7352162 L84.919952,58.5455629 L94.6378579,56.2021441 C94.8337395,56.1587475 97.9243166,55.4318537 98.5881377,52.7032897 L98.5772554,52.7032897 C98.5609319,52.7032897 98.5554907,51.2332284 96.9122614,50.287724 L93.9141841,48.5789812 L96.2810872,46.072825 C96.966673,45.3513558 97.3421128,44.624462 97.3094658,44.0765794 C97.2659366,43.3496856 96.515057,42.6824622 95.8893239,42.2430712 L93.7835963,40.783859 L95.1221209,38.6031777 C95.7968243,37.5019878 95.2581498,36.9649544 94.9915331,36.7045745 L94.4256528,36.1404181 C93.4897738,35.2019657 93.1360986,35.6413567 92.5266891,36.0102282 L90.3284618,37.3609487 L88.8647906,35.2399378 C88.0812641,34.1224742 86.7917099,33.1948709 85.300833,34.5672898 L82.7979009,36.8835856 L81.0839365,33.9380384 C80.3657038,32.6903849 79.293796,32.4300051 78.5211517,32.4300051 C75.7788087,33.0429827 74.9789587,36.2272114 74.9463118,36.3574013 L72.524997,46.0890987 L69.3582438,38.4784123 C68.2210421,35.7606975 66.7192828,34.1984183 65.2229647,34.1984183 C62.3881221,34.8330942 61.1965087,36.5309879 61.0985679,39.6013005 C61.0713621,40.5234792 61.1040091,42.7095851 61.446802,47.8792103 L62.1867993,59.1476913 L56.3865262,49.4469141 C54.6834442,46.5935847 53.2034495,46.4525456 52.9205094,46.4525456 C51.8431604,46.7346238 51.103163,47.2716573 50.6678705,48.0690706 C49.9006674,49.4794615 50.2271368,51.4881837 50.4230185,52.1445579 L55.8696163,72.6711705 L49.5524334,67.8649922 C48.7144952,67.2303163 48.0561153,67.1543721 48.0289095,67.1543721 C47.1039129,67.078428 46.9570016,67.2845621 46.9134724,67.3388079 C46.6903849,67.6208861 46.6087676,68.1958916 46.6795026,68.526791 C46.864502,69.3567518 47.7622928,71.6567739 49.7374327,75.6058685 L51.4622794,79.0450526 Z M46.9787663,79.5115665 C46.6414145,79.9997787 46.1952397,82.0936668 46.1789162,84.7896833 C50.6025766,84.7354375 51.5438967,83.7915605 51.5493379,83.7807113 L51.0705161,80.0052033 L46.9787663,79.5115665 Z M37.8539464,93.1218389 L33.9635194,95.4381348 C33.9199901,95.4815314 33.4792564,95.9588945 33.4466095,96.3114923 C33.4194037,96.6369671 33.7785201,97.0438106 33.9961663,97.2607938 C34.4205766,97.6676374 35.2476324,97.3096151 35.7264542,96.7129112 L37.8539464,93.1218389 Z M34.4967528,103 C32.8916115,103 31.3898523,102.343626 30.1438274,101.101397 C28.1904521,99.1539724 27.907512,97.1740006 28.0217763,95.8558275 C28.2503048,93.1164144 30.2744151,91.4185207 30.894707,90.9628559 L40.7268772,85.0934598 C40.7105537,82.1479126 41.1077582,77.9601365 43.218927,75.7306339 C43.3331913,75.6112931 43.4583379,75.4919523 43.5780433,75.3780362 C42.3701065,72.7959358 41.6301092,70.8864835 41.3580514,69.6876512 C41.0206997,68.1090983 41.1839344,65.7765287 42.6748113,63.9321713 C43.7956896,62.5489033 45.4389189,61.7623391 47.3270003,61.6972442 L45.1831845,53.630893 C45.1668611,53.5820718 43.8174542,49.2462046 45.8796526,45.4706966 C47.0222955,43.3930822 48.948465,41.9121718 51.4568382,41.2015517 C52.1206593,40.9791439 53.6768302,40.7730099 55.6628524,41.5704232 C55.6410877,40.680792 55.6356466,39.9647474 55.6519701,39.4222893 C55.8369694,33.9271893 58.7262236,30.1137092 63.5960589,28.9745473 C64.3088504,28.7521395 67.8836903,28.0360949 71.2572075,31.4427314 C72.4869089,29.5821003 74.434843,27.7811396 77.2914503,27.1139162 C77.5417435,27.065095 77.9226245,27 78.5211517,27 C79.6148242,27 81.9436393,27.233257 83.9623084,28.9745473 C84.919952,28.5351563 85.9211248,28.3018993 86.9277388,28.3018993 C88.2717045,28.3018993 90.1053744,28.719592 91.9063972,30.4446086 C93.9196252,29.9401226 96.5041747,30.5259773 98.2725506,32.2998151 L98.8329897,32.8531223 C100.862541,34.8819154 101.189011,37.2253342 100.699306,39.232429 C102.233713,40.8652277 102.679888,42.5305739 102.745181,43.7673783 C102.821358,45.0150318 102.538417,46.2626853 101.929008,47.456093 C103.566796,49.3329979 104.159882,51.6563457 103.964001,53.5061276 C103.262091,56.5547419 101.488274,58.5672612 99.6437221,59.8311885 C100.383719,60.5526577 100.976805,61.3446464 101.428421,62.1963056 C102.511212,64.2684953 102.489447,66.3461096 102.119448,67.6046123 C101.009452,72.302299 97.1897604,75.1773267 91.6833098,75.3617624 L90.9106656,75.3726116 C90.50802,75.3726116 90.0455216,75.3617624 89.5449352,75.3509133 C90.4155203,77.5207455 89.9911101,79.2403375 89.8986104,79.5549631 C88.7015559,83.7318901 85.300833,86.2380463 80.8118787,86.2380463 C79.2883548,86.2380463 78.0314476,85.9559681 77.4220381,85.7823815 L69.363685,83.655946 C69.3092734,85.5111525 68.531188,86.8130518 67.8238376,87.6104652 C66.1098733,89.5416158 63.7157643,89.7477499 62.7635619,89.7477499 C62.246652,89.7477499 61.7569479,89.6935041 61.310773,89.590437 C59.9341604,89.2975097 57.7522565,88.3807556 55.6302054,87.3934819 C53.9652115,89.2758114 50.7603702,90.2088392 45.9014172,90.2196884 L40.2371731,99.7344025 C39.8671744,100.260587 37.7614468,103 34.4967528,103 Z" id="Fill-3"></path>
            </g>
        </g>
    </g>
</svg>