<svg viewBox="0 0 216 183" xmlns="http://www.w3.org/2000/svg">
    <path d="M128.554421,22.921081 L130.633449,5.88225526 L132.720827,4.97362769 C139.314159,2.18460773 143.786714,4.67715707 145.737717,6.24735335 L128.554421,22.921081 Z M145.921406,24.8508851 L143.552928,28.669317 L129.111055,25.1089244 L147.054156,7.69676529 C151.643605,15.8304918 146.183024,24.4418655 145.921406,24.8508851 Z M168.515186,34.8650041 L146.202506,52.0026533 L150.018233,33.5748078 C161.440366,29.424219 166.619847,32.855592 168.515186,34.8650041 Z M167.340688,55.873242 L146.912215,53.9159869 L169.792661,36.7865729 C169.80936,36.7755925 169.820493,36.7591219 169.837192,36.7453964 C173.538809,43.1552012 172.72334,49.4387314 167.340688,55.873242 Z M154.076096,67.7650082 L129.845812,66.6916748 L144.585484,55.6618694 C144.685678,55.7387322 158.921596,57.4324579 165.219912,58.1791247 C162.690009,60.6744191 158.359396,64.3061843 154.076096,67.7650082 Z M141.599142,77.5567742 L116.105298,76.9116761 L127.377139,68.539126 C127.549696,68.5144201 143.689303,69.48893 151.345806,69.9528517 C146.681212,73.6669698 142.573252,76.8101074 141.599142,77.5567742 Z M168.868648,81.7595198 L146.533703,92.9183448 L152.317132,77.9657939 C164.448973,75.2042249 168.420558,81.0293237 168.868648,81.7595198 Z M166.241335,98.4963847 C165.48153,99.2457966 164.716158,99.8908947 164.020365,100.426189 L146.806454,94.988149 L169.739781,83.5054024 C172.069295,88.8583443 170.905929,93.8955998 166.241335,98.4963847 Z M161.209363,102.287366 L149.773314,108.848151 L132.091831,102.935209 L144.604966,96.1767766 L162.016482,101.815209 C161.54056,102.108934 161.237194,102.270895 161.209363,102.287366 Z M132.406329,118.810113 L116.823356,111.181484 L129.834679,104.154032 L147.521729,110.138347 L132.406329,118.810113 Z M122.907367,124.259133 L107.160187,116.399916 L114.902968,112.219132 L130.399663,119.960309 L122.907367,124.259133 Z M140.001602,132.173252 L121.134488,134.330899 L129.152802,127.275996 C129.211249,127.223839 129.258563,127.166192 129.303094,127.103055 C134.799856,127.157957 137.510664,129.483055 137.741667,129.680702 C138.768657,130.476781 139.514547,131.311291 140.001602,132.173252 Z M140.647297,134.254036 C140.797589,136.730115 138.910599,138.797174 138.328916,139.3709 C137.850211,139.845802 137.446651,140.134037 137.196166,140.295998 C135.598626,141.306194 132.823805,142.533253 129.684388,143.768547 L121.053776,136.30188 L140.622249,134.059134 C140.630598,134.125017 140.644514,134.188154 140.647297,134.254036 Z M106.122065,136.389723 L106.110932,131.871291 L115.150671,122.960702 L125.654357,127.956781 L118.06465,134.789331 L106.122065,136.389723 Z M117.750152,148.03992 L109.614944,137.85286 L118.671381,136.625801 L127.64989,144.553645 C124.251639,145.832861 120.64465,147.076391 117.750152,148.03992 Z M115.768534,148.693254 C113.528082,149.426195 112.044652,149.887372 111.991772,149.903842 C111.120639,150.175607 110.547306,150.996391 110.605753,151.896784 C110.666982,152.797176 111.34051,153.541098 112.239474,153.700313 C113.054943,153.843058 113.759085,154.02698 114.357467,154.257568 L106.099799,158.699137 L106.099799,138.330507 L107.393974,138.154821 L115.768534,148.693254 Z M116.653583,156.253255 C117.597078,159.20149 113.770218,165.385374 106.670349,172.38812 C106.469961,172.585767 106.280705,172.769688 106.099799,172.945375 L106.099799,160.941883 L116.219408,155.470902 C116.417013,155.71247 116.564521,155.97051 116.653583,156.253255 Z M111.273714,211.335576 C111.437921,212.691654 111.415655,216.265772 109.534232,218.118714 C108.599087,219.041067 107.268731,219.477537 105.495851,219.477537 C105.440188,219.477537 105.309379,219.483028 105.159088,219.488518 C104.819541,219.502243 104.343619,219.521459 104.240641,219.521459 C102.467762,219.521459 101.137406,219.084988 100.202261,218.162635 C98.3208372,216.309694 98.2985718,212.735576 98.4627789,211.379497 L104.908602,186.772435 L111.273714,211.335576 Z M93.0829099,156.297176 C93.1719714,156.014431 93.3194794,155.756392 93.5170846,155.514823 L103.636693,160.98855 L103.636693,172.989296 C103.455787,172.816355 103.266532,172.629688 103.066143,172.432041 C95.9662748,165.429295 92.139415,159.245412 93.0829099,156.297176 Z M82.0893856,144.597567 L91.0651112,136.669723 L100.121549,137.896782 L91.9863407,148.083842 C89.0918431,147.120312 85.4848539,145.879528 82.0893856,144.597567 Z M72.5403269,140.339919 C72.2898415,140.177959 71.8862818,139.889723 71.4075764,139.414821 C70.8258937,138.841096 68.938904,136.776782 69.0891952,134.297958 C69.0919784,134.232076 69.1058942,134.168938 69.1142437,134.103056 L88.682717,136.348546 L80.0521046,143.812469 C76.9126881,142.577175 74.1378669,141.350116 72.5403269,140.339919 Z M71.9948254,129.727369 C72.2258286,129.526977 74.93942,127.201879 80.433399,127.149722 C80.4779298,127.210114 80.5252437,127.267761 80.5836902,127.319918 L88.6020051,134.374821 L69.7348908,132.217173 C70.2219457,131.355212 70.9678354,130.520703 71.9948254,129.727369 Z M62.2147635,110.182269 L79.9045966,104.197954 L92.9159197,111.228151 L77.3329468,118.854034 L62.2147635,110.182269 Z M48.52713,102.331287 C48.4992982,102.314817 48.1959326,102.152856 47.7200104,101.85913 L65.1315264,96.2206981 L77.644662,102.97913 L59.9631784,108.892072 L48.52713,102.331287 Z M43.4951573,98.5403063 C38.8305632,93.9395214 37.6671978,88.9022658 39.9994949,83.5520691 L62.9300384,95.0320705 L45.7161275,100.47011 C45.0203349,99.9348163 44.2549629,99.2897181 43.4951573,98.5403063 Z M57.4193604,78.0097154 L63.2055723,92.9622664 L40.8678441,81.8034414 C41.3159346,81.0732452 45.2875192,75.2481465 57.4193604,78.0097154 Z M66.2531442,81.0457942 L69.885182,82.6406964 L75.6686108,86.0583439 L78.6159885,101.28815 L65.9664777,94.4555999 L59.7739228,78.6301077 C61.7416245,79.2093234 63.8957986,79.9971667 66.2531442,81.0457942 Z M65.1510086,55.705791 L79.8934639,66.7355963 L55.6603965,67.8116749 C51.3770968,64.3501058 47.0464831,60.7183407 44.516581,58.2230462 C50.8148963,57.4763795 65.0508145,55.7826538 65.1510086,55.705791 Z M39.8993007,36.7920631 C39.9159998,36.8030435 39.9271324,36.8195141 39.9438315,36.8304945 L62.8242779,53.9599084 L42.3958049,55.9171636 C37.0131527,49.482653 36.1976837,43.1991228 39.8993007,36.7920631 Z M59.7182594,33.6187294 L63.5339864,52.0465749 L41.22409,34.9089256 C43.1166461,32.8995136 48.2961268,29.4681406 59.7182594,33.6187294 Z M66.8932735,36.8497102 C67.0463479,36.929318 67.210555,36.98422 67.374762,37.0226514 L67.3664125,37.0253965 L71.5411686,39.1144164 L79.0390305,44.8544171 L81.2627839,65.3191256 L65.9831767,53.8803006 L61.9141811,34.4806903 C63.4699735,35.1340237 65.1259601,35.9136316 66.8932735,36.8497102 Z M93.8065343,56.7352029 L95.0951423,75.6736367 L83.4197412,66.9359885 L81.2126868,46.6030448 L93.8065343,56.7352029 Z M72.5347605,37.3108867 L69.5233698,34.1046118 L67.2578689,30.4481407 L82.2396768,26.717552 L90.1605807,34.4065726 L75.7576722,39.7046125 L72.5347605,37.3108867 Z M63.8178699,24.8948067 C63.5534686,24.485787 58.0928877,15.8744134 62.6823362,7.74068687 L80.6254378,25.152846 L66.183565,28.7132386 L63.8178699,24.8948067 Z M100.346985,44.2916719 L87.5499665,49.1916725 L77.530552,41.1293186 C77.530552,41.1293186 91.6384443,36.0371611 91.9000624,36.0618669 L100.346985,44.2916719 Z M103.636693,47.4842213 L103.636693,62.1320663 L89.3061473,50.6026531 L101.888862,45.7850054 L103.636693,47.4842213 Z M77.0184486,5.01754927 L79.1030434,5.92617683 L81.1820719,22.9650025 L63.998776,6.29127492 C65.9497786,4.72107864 70.422334,2.2312744 77.0184486,5.01754927 Z M94.0653692,19.1657864 L101.538183,16.2889233 L103.636693,19.1904922 L103.636693,29.5971602 L94.0653692,19.1657864 Z M85.0005822,9.28892236 L94.2518416,6.23088276 L100.355335,14.6583348 L92.6487353,17.6230411 L85.0005822,9.28892236 Z M79.9797422,3.72735302 L79.6875093,1.85794102 C79.6095805,-0.275000427 79.8071856,-4.99931475 82.7573466,-7.58794254 C82.9883497,-7.79107982 83.2555341,-7.9832367 83.5366344,-8.1644132 L93.0550782,4.57833352 L83.5588997,7.71598098 L79.9797422,3.72735302 Z M94.7917767,-9.32284472 L96.2696404,-8.6777466 L96.6843328,-8.12323672 L94.159997,2.7528431 L85.3317795,-9.04284468 C87.8449826,-9.96519774 91.2627163,-10.1875507 94.7917767,-9.32284472 Z M97.7057565,-10.0942174 L97.2687987,-11.7659823 C97.3383779,-13.5585315 97.8922289,-18.0165713 103.636693,-18.0604929 L103.636693,-2.33382422 L97.7057565,-10.0942174 Z M103.636693,15.8414722 L95.6907409,4.86931395 L98.2401253,-6.1110796 L103.636693,0.869705601 L103.636693,15.8414722 Z M93.1023921,21.0187278 L103.636693,32.5014743 L103.636693,44.7555935 L93.2276348,34.6536315 L93.1023921,21.0187278 Z M91.2376677,32.7210822 L83.4392234,25.155591 L81.3323632,8.1936281 L91.1179914,18.8555902 C91.1152082,18.9544138 91.2376677,32.7210822 91.2376677,32.7210822 Z M97.1797372,77.2328526 L95.8939123,58.4152031 L103.636693,64.6438314 L103.636693,82.0697159 L97.1797372,77.2328526 Z M94.5858221,123.004623 L103.625561,131.915212 L103.614428,136.433644 L91.6718424,134.833252 L84.0821358,128.003447 L94.5858221,123.004623 Z M103.636693,118.088152 L103.636693,129.156389 L96.3893167,122.024623 L103.636693,118.088152 Z M102.576305,116.446583 L86.8291253,124.303055 L79.3368298,120.004231 L94.8335243,112.263053 L102.576305,116.446583 Z M88.6020051,93.4316782 L93.166405,109.144621 L80.8592241,102.495993 L77.9257622,87.3457951 L88.6020051,93.4316782 Z M103.636693,102.007366 L103.636693,114.802269 L95.5988962,110.459523 L91.0595448,94.8344235 L103.636693,102.007366 Z M92.1561141,93.2148154 L103.636693,90.8183445 L103.636693,99.7618751 L92.1561141,93.2148154 Z M58.390687,69.9995183 C66.0471896,69.5328516 82.1867966,68.5583417 82.3593532,68.5830476 L93.6311946,76.9555976 L68.1373508,77.6006958 C67.1632411,76.854029 63.0552811,73.7108914 58.390687,69.9995183 Z M95.905045,78.5944214 L103.636693,84.5128535 L103.636693,88.8308933 L89.6039465,91.7599133 L69.2227874,79.9367745 C69.2227874,79.9367745 95.8577311,78.6054018 95.905045,78.5944214 Z M97.7447209,149.947764 C97.6918406,149.931293 96.2084106,149.470117 93.9707414,148.737175 L102.342519,138.198743 L103.636693,138.374429 L103.636693,158.745804 L95.3790258,154.30149 C95.9746243,154.070902 96.6815497,153.88698 97.4970187,153.744235 C98.3959828,153.585019 99.0695101,152.841098 99.1307399,151.940705 C99.1891865,151.040313 98.6158533,150.222274 97.7447209,149.947764 Z M106.099799,118.04423 L113.347176,121.977956 L106.099799,129.112467 L106.099799,118.04423 Z M124.404713,-9.08676626 L115.576496,2.70892152 L113.05216,-8.1671583 L113.466852,-8.72441327 L114.944716,-9.36676629 C118.473776,-10.2314723 121.89151,-10.0091193 124.404713,-9.08676626 Z M118.498825,32.6771606 C118.498825,32.6771606 118.621284,18.9104922 118.618501,18.8116687 L128.404129,8.14696143 L126.297269,25.1116695 L118.498825,32.6771606 Z M140.213123,34.0579451 L137.201732,37.2669651 L133.97882,39.6606909 L119.575912,34.362651 L127.496816,26.6736305 L142.478624,30.4042192 L140.213123,34.0579451 Z M130.697462,44.8104955 L138.195324,39.0704948 L142.37008,36.9814749 L142.361731,36.9787298 C142.525938,36.9402984 142.690145,36.8853965 142.843219,36.8030435 C144.613316,35.8697101 146.266519,35.0901021 147.822312,34.4367687 L143.753316,53.836379 L128.473709,65.275204 L130.697462,44.8104955 Z M115.929958,56.6912813 L128.523806,46.5591232 L126.316751,66.8893219 L114.64135,75.6297151 L115.929958,56.6912813 Z M113.84258,58.3712816 L112.556755,77.188931 L106.099799,82.0230493 L106.099799,64.5999098 L113.84258,58.3712816 Z M107.850414,45.7410839 L120.430345,50.5587315 L106.099799,62.0881448 L106.099799,47.4402998 L107.850414,45.7410839 Z M132.205941,41.085397 L122.186526,49.1450059 L109.389507,44.2477503 L117.83643,36.0179454 C118.098048,35.9932395 132.205941,41.085397 132.205941,41.085397 Z M116.634101,20.9748062 L116.508858,34.6097099 L106.099799,44.711672 L106.099799,32.4548077 L116.634101,20.9748062 Z M108.201093,16.2450017 L115.671123,19.1218648 L106.099799,29.5532387 L106.099799,19.1465707 L108.201093,16.2450017 Z M115.484651,6.18696118 L124.73591,9.24500079 L117.087757,17.5791195 L109.381158,14.6144132 L115.484651,6.18696118 Z M106.099799,-2.37774579 L106.099799,-18.1044145 C111.844264,-18.063238 112.398115,-13.6024531 112.467694,-11.8099039 L112.030736,-10.140884 L106.099799,-2.37774579 Z M111.499151,-6.15500118 L114.045752,4.82539238 L106.099799,15.7948055 L106.099799,0.825784027 L111.499151,-6.15500118 Z M120.132546,91.7159917 L106.099799,88.7869717 L106.099799,84.4689319 L113.831448,78.5504998 C113.878762,78.5614802 140.513705,79.8928529 140.513705,79.8928529 L120.132546,91.7159917 Z M134.067882,86.0144223 L139.851311,82.5967748 L143.483348,80.9991276 C145.843477,79.9532451 147.994868,79.1654019 149.96257,78.583441 L143.770015,94.4089332 L131.120504,101.241483 L134.067882,86.0144223 Z M121.134488,93.3877566 L131.81073,87.2991284 L128.880052,102.452071 L116.570088,109.1007 L121.134488,93.3877566 Z M106.099799,99.7179535 L106.099799,90.7744229 L117.580379,93.1708938 L106.099799,99.7179535 Z M118.676948,94.7905019 L114.137596,110.415602 L106.099799,114.755602 L106.099799,101.963444 L118.676948,94.7905019 Z M126.979146,-7.63186411 C129.929307,-5.04323633 130.126912,-0.321667099 130.048983,1.81401945 L129.75675,3.68343145 L126.180376,7.67205941 L116.681414,4.53166685 L126.199858,-8.20833477 C126.480958,-8.02715828 126.74536,-7.83500139 126.979146,-7.63186411 Z M134.020568,0.397548678 C133.920374,-2.69343211 133.138303,-7.45343271 129.634291,-10.5416684 C126.678564,-13.1467668 121.415588,-14.5302964 116.094165,-13.6079433 C115.122839,-17.5279438 113.127305,-22.0189248 106.019087,-22.0189248 L105.498634,-22.0051993 L103.717405,-21.9750032 C96.6091872,-21.9750032 94.6136538,-17.4840222 93.6423272,-13.5640217 C88.3209048,-14.4863748 83.0607122,-13.1028452 80.1022017,-10.4950017 C76.5981898,-7.40676604 75.8161188,-2.64951053 75.7159247,0.441470253 C67.7922376,-1.61735354 61.9503623,2.25323519 59.8073209,4.87205905 C59.7572238,4.93519632 59.7099099,5.00107868 59.6653792,5.06970614 C53.0970963,15.5065702 60.152434,26.5144148 60.4557996,26.9755913 L62.6712035,30.5524545 C55.537937,27.692062 49.4121782,27.0195129 44.4108205,28.5595131 C38.9669385,30.2340231 36.9547061,34.0030432 36.8739942,34.1622589 C33.1556781,40.0614753 30.7677176,49.5046138 40.9402066,60.2077524 C44.2271312,63.6885371 51.8808507,68.8246162 57.820137,73.95246 C42.2427305,70.1697144 37.5809195,79.5771666 37.3554827,79.9724608 C33.1361959,87.4501088 34.3190435,95.0265803 40.6897212,101.310111 C43.5703029,104.151287 46.4787163,105.688542 46.6011758,105.75168 L77.4581895,123.454819 C72.2453108,124.209721 69.5679006,126.614428 69.412043,126.757173 C66.7819467,128.788545 65.2957335,131.28384 65.1259601,134.064625 C64.8838242,138.061488 67.4749562,141.072861 68.5993571,142.18188 C69.1782567,142.752861 69.7989037,143.255214 70.3972854,143.631292 C74.5135949,146.239136 85.0618119,149.928548 91.4436224,152.036784 C90.4054997,152.865803 89.6874416,153.895215 89.2977977,155.119529 C87.4386397,160.944628 94.2323594,169.253217 100.257924,175.1991 C101.154105,176.083022 101.883296,176.761061 102.323037,177.164591 L102.77391,178.929689 L94.5802558,210.534007 C94.5635567,210.602634 94.5496409,210.671262 94.5385082,210.742634 C94.4995438,211.008909 93.6478936,217.262243 97.3801255,220.94342 C99.0750765,222.615185 101.373975,223.46342 104.21281,223.46342 C104.240641,223.46342 104.282389,223.460675 104.332486,223.45793 C104.488344,223.46342 105.365042,223.419499 105.523683,223.419499 C108.362517,223.419499 110.661416,222.571263 112.356367,220.899498 C116.088599,217.218321 115.236949,210.962242 115.197984,210.698713 C115.186852,210.62734 115.172936,210.558713 115.156237,210.490085 L106.962582,178.885768 L107.413456,177.120669 C107.853197,176.71714 108.582388,176.0391 109.478569,175.155179 C115.504133,169.209296 122.300636,160.900706 120.438695,155.075608 C120.049051,153.851294 119.330993,152.821882 118.295653,151.992862 C124.674681,149.884627 135.222898,146.195214 139.339207,143.587371 C139.937589,143.211292 140.558236,142.708939 141.137135,142.137959 C142.261536,141.028939 144.852668,138.017566 144.610533,134.020703 C144.440759,131.237173 142.954546,128.741879 140.32445,126.713251 C140.168592,126.570506 137.493965,124.1658 132.278303,123.410898 L163.135317,105.707758 C163.257776,105.644621 166.16619,104.107366 169.046771,101.266189 C175.417449,94.9826588 176.600297,87.4061872 172.38101,79.9285392 C172.155573,79.5304999 167.496545,70.1257929 151.919139,73.9085384 C157.855642,68.7806946 165.509361,63.6446156 168.799069,60.1638308 C178.968775,49.4606922 176.580815,40.0175537 172.865282,34.1183373 C172.781787,33.9591216 170.769554,30.1901015 165.325672,28.5155915 C160.324314,26.9755913 154.201339,27.6453953 147.065289,30.5085329 L149.280693,26.9316697 C149.584059,26.4704932 156.639396,15.4626486 150.071113,5.02578456 C150.026583,4.9571571 149.982052,4.89127474 149.929172,4.82813748 C147.78613,2.20931362 141.944255,-1.66127511 134.020568,0.397548678 Z" id="Fill-8" fill="#FFFFFF" transform="translate(104.868598, 100.722248) rotate(53.000000) translate(-104.868598, -100.722248) "></path>
</svg>