<svg version="1.1" id="Layer_1" xmlns="http://www.w3.org/2000/svg" xmlns:xlink="http://www.w3.org/1999/xlink" x="0px" y="0px" width="245px" height="82px" viewBox="0 0 245 82" enable-background="new 0 0 245 82" xml:space="preserve">
<path fill="#FFFFFF" d="M195.947,55.002h-0.998l-3.294,3.6v-3.6h-0.845v7.257h0.845v-2.844l0.759-0.675l2.649,3.519h0.993  l-3.031-4.104L195.947,55.002z M204.007,55.002h-0.845v7.257h4.049v-0.763h-3.204V55.002z M219.19,59.729  c0,0.607-0.167,1.076-0.497,1.4c-0.331,0.326-0.803,0.49-1.415,0.49c-0.645,0-1.132-0.163-1.462-0.487  c-0.33-0.323-0.496-0.79-0.496-1.394v-4.736h-0.845v4.678c0,0.832,0.238,1.486,0.718,1.965c0.479,0.476,1.154,0.713,2.03,0.713  c0.873,0,1.562-0.235,2.063-0.708c0.499-0.474,0.748-1.124,0.748-1.95v-4.697h-0.844V59.729z M231.443,58.457v-0.05  c0.46-0.084,0.81-0.264,1.052-0.543c0.238-0.28,0.359-0.635,0.359-1.066c0-0.62-0.217-1.076-0.647-1.363  c-0.43-0.29-1.127-0.433-2.092-0.433h-2.052v7.257h2.535c0.788,0,1.401-0.181,1.839-0.546c0.44-0.365,0.659-0.869,0.659-1.52  C233.097,59.224,232.546,58.645,231.443,58.457z M228.908,55.731h1.243c0.636,0,1.099,0.09,1.391,0.271  c0.29,0.182,0.437,0.474,0.437,0.882c0,0.441-0.129,0.758-0.391,0.945c-0.264,0.187-0.691,0.281-1.288,0.281h-1.392V55.731z   M231.749,61.199c-0.297,0.227-0.739,0.341-1.324,0.341h-1.517v-2.716h1.446c0.619,0,1.081,0.106,1.384,0.317  c0.303,0.212,0.455,0.544,0.455,0.992C232.193,60.618,232.044,60.973,231.749,61.199z M242.861,58.243  c-0.455-0.16-0.792-0.31-1.012-0.443s-0.378-0.282-0.471-0.443c-0.093-0.159-0.14-0.365-0.14-0.618c0-0.338,0.127-0.606,0.379-0.799  c0.251-0.191,0.602-0.287,1.048-0.287c0.567,0,1.151,0.126,1.749,0.377l0.264-0.734c-0.606-0.266-1.271-0.396-1.993-0.396  c-0.691,0-1.248,0.166-1.669,0.497c-0.42,0.329-0.632,0.776-0.632,1.334c0,0.533,0.146,0.965,0.437,1.296  c0.29,0.329,0.772,0.616,1.447,0.859c0.484,0.172,0.845,0.325,1.081,0.459c0.235,0.138,0.406,0.285,0.507,0.446  c0.101,0.16,0.152,0.365,0.152,0.617c0,0.383-0.143,0.677-0.43,0.892c-0.284,0.214-0.707,0.32-1.271,0.32  c-0.345,0-0.691-0.035-1.043-0.109c-0.352-0.073-0.676-0.173-0.976-0.298v0.813c0.465,0.222,1.128,0.332,1.988,0.332  c0.796,0,1.427-0.178,1.889-0.535c0.464-0.358,0.695-0.855,0.695-1.494c0-0.495-0.142-0.901-0.431-1.212  C244.146,58.807,243.621,58.515,242.861,58.243z M96.508,24.722h-3.205v-6.492h-0.845v7.257h4.05V24.722z M109.332,22.925v-4.695  h-0.846v4.725c0,0.61-0.165,1.077-0.496,1.403c-0.331,0.327-0.803,0.489-1.416,0.489c-0.643,0-1.13-0.162-1.461-0.487  c-0.332-0.324-0.497-0.789-0.497-1.395v-4.735h-0.845v4.676c0,0.834,0.239,1.489,0.718,1.966c0.479,0.477,1.156,0.714,2.03,0.714  c0.875,0,1.563-0.236,2.062-0.709C109.081,24.402,109.332,23.752,109.332,22.925z M78.644,21.055  c0.917-0.977,2.139-2.669,2.027-4.672c-0.096-1.691-1.262-3.702-3.152-5.026c0.907-1.493,1.681-3.47-0.468-5.616l-0.162-0.154  l-0.546-0.526c-2.148-2.146-4.128-1.374-5.623-0.467c-1.326-1.889-3.339-3.054-5.031-3.148c-2.005-0.112-3.699,1.107-4.677,2.024  c-1.764-3.022-4.713-3.602-6.165-3.447c-0.035,0.003-0.069,0.01-0.104,0.018c-5.183,1.21-6.422,6.71-6.473,6.943l-0.426,1.762  c-1.279-3.029-2.924-5.083-4.908-6.122c-2.159-1.13-3.92-0.584-3.995-0.561c-2.93,0.683-6.545,2.853-6.75,9.198  c-0.074,2.058,0.666,5.94,0.889,9.302c-3.548-5.859-7.839-4.387-8.028-4.334c-3.566,1.014-5.529,3.69-5.529,7.537  c-0.001,1.738,0.408,3.087,0.424,3.144l3.902,14.732c-1.808-1.342-3.353-1.415-3.443-1.417c-1.417-0.173-2.63,0.142-3.534,0.942  c-1.298,1.152-1.438,2.854-1.438,3.535c0,0.348,0.034,0.689,0.099,0.985c0.444,2.041,2.501,6.354,3.784,8.926  c-0.568-0.06-1.1,0.039-1.593,0.295c-2.348,1.221-2.84,5.815-2.84,9.454c0,0.541,0.012,0.968,0.021,1.225l-0.403,0.677L2.344,73.46  c-0.026,0.016-0.052,0.033-0.078,0.051C2.174,73.581,0,75.239,0,77.492c0,1.022,0.435,1.977,1.293,2.833  c0.008,0.009,0.021,0.021,0.037,0.035c0.046,0.049,0.325,0.299,0.373,0.348C2.561,81.565,3.515,82,4.539,82  c2.256,0,3.916-2.173,3.985-2.267c0.018-0.024,0.035-0.05,0.052-0.075l7.207-12.146l0.677-0.403  c0.256,0.009,0.685,0.021,1.227,0.021c3.642,0,8.241-0.491,9.463-2.835c0.258-0.494,0.356-1.025,0.296-1.591  c2.575,1.281,6.894,3.334,8.935,3.777c0.297,0.066,0.638,0.102,0.988,0.102c0.679,0,2.385-0.142,3.537-1.437  c0.801-0.903,1.117-2.114,0.943-3.529c-0.003-0.092-0.075-1.636-1.418-3.441l14.748,3.897c0.057,0.019,1.406,0.427,3.147,0.426  c3.85,0,6.53-1.962,7.544-5.523c0.054-0.191,1.528-4.475-4.338-8.021c3.365,0.224,7.25,0.961,9.312,0.89  c6.354-0.205,8.524-3.817,9.208-6.745c0.024-0.073,0.571-1.834-0.562-3.99c-1.04-1.981-3.096-3.625-6.128-4.902l1.765-0.426  c0.233-0.05,5.739-1.288,6.951-6.465c0.008-0.035,0.014-0.069,0.017-0.104C82.249,25.764,81.67,22.816,78.644,21.055z M7.143,78.745  c-0.366,0.464-1.468,1.552-2.604,1.552c-0.565,0-1.101-0.269-1.637-0.804c-0.017-0.018-0.058-0.053-0.105-0.098  c-0.107-0.099-0.256-0.237-0.288-0.268c-0.535-0.535-0.804-1.069-0.804-1.636c0-1.134,1.088-2.235,1.553-2.601l9.487-5.584  L7.143,78.745z M78.918,16.061c0.029,0.141,0.05,0.278,0.058,0.411c0.099,1.683-1.289,3.188-1.967,3.817l-0.66,0.484l-2.303,0.141  l-1.908-3.828L78.918,16.061z M21.862,55.875c-0.011-0.021-0.318-0.61-0.771-1.51l5.76-0.699l0.337,0.444l-6.241,6.233l-1.134-3.851  c0.25,0.109,0.521,0.266,0.812,0.469c0.32,0.223,0.751,0.198,1.045-0.061C21.963,56.646,22.042,56.221,21.862,55.875z   M24.658,49.414l-0.201-4.381l4.705,1.642l0.002,5.455l-1.388,1.381L24.658,49.414z M26.421,44.731l-0.948-3.579l7.055,2.309  l1.058,3.616L26.421,44.731z M43.167,33.481l0.524,4.145l-1.324,1.322l-5.138-3.339l-2.537-9.771  C34.693,25.837,43.151,33.47,43.167,33.481z M34.465,19.526c2.457,2.169,7.633,6.743,7.677,6.803l0.841,5.965l-7.902-7.498  C35.015,24.272,34.737,22.07,34.465,19.526z M42.516,40.286l2.735,4.2l-5.475-1.462L42.516,40.286z M39.02,42.292l-1.463-5.468  l4.203,2.733L39.02,42.292z M36.416,35.818l-3.436,6.187l-1.683-5.751l3.758-5.522L36.416,35.818z M33.405,47.902l-3.392,3.387  l-0.004-4.372L33.405,47.902z M34.162,48.632l0.985,3.392l-4.376-0.006L34.162,48.632z M33.313,43.14l3.416-6.151l1.603,5.992  l-3.92,3.915L33.313,43.14z M39.088,43.71l5.999,1.601l-6.159,3.412l-3.759-1.096L39.088,43.71z M46.259,45.625l5.092,1.358  l-5.528,3.753l-5.757-1.681L46.259,45.625z M52.427,47.272l2.795,0.699l1.586,0.607c1.034,0.392,1.925,0.801,2.698,1.217  l-6.719,2.975l-5.917-1.728L52.427,47.272z M46.469,44.81l-3.344-5.132l1.323-1.323l4.15,0.525c0.012,0.016,7.652,8.465,7.652,8.465  L46.469,44.81z M44.44,36.879l-0.471-3.429l5.377-6.147l0.432,4.244L44.44,36.879z M50.536,32.275l4.249,0.431l-6.154,5.372  l-3.433-0.471L50.536,32.275z M55.929,32.823l6.911,0.701l-6.897,5.556l-6.205-0.85L55.929,32.823z M60.132,32.402l-2.366-5.363  l5.075,0.032c0.086,0.072,2.79,5.889,2.79,5.889L60.132,32.402z M64.033,33.644l4.024,0.507l1.902,0.62l0-0.003  c0.061,0.039,0.126,0.071,0.198,0.094c0.821,0.247,1.561,0.508,2.23,0.777l-7.174,4.709l-8.121-1.111L64.033,33.644z M70.202,33.226  l-1.892,0.073l-1.708-0.24l-2.729-5.969l4.749,0.039l3.385,5.663L70.202,33.226z M64.063,26.249c0,0,4.255-4.177,4.284-4.208  l6.225-0.31l-5.834,4.556L64.063,26.249z M67.363,21.247l-6.09,0.303l3.189-3.185l1.523-0.254L67.363,21.247z M66.843,17.969  l4.427-0.738l1.859,3.729l-4.865,0.242L66.843,17.969z M78.644,15.25l-6.282,0.946l2.571-4.091l0.295-0.045l0.643,0.25  C77.203,13.108,78.167,14.208,78.644,15.25z M75.871,10.813l-0.643,0.38l-4.17,0.583l4.817-4.813  C77.599,8.711,76.4,10.244,75.871,10.813z M70.884,6.881l0.381-0.644c0.569-0.527,2.103-1.724,3.853-0.003l-4.819,4.813  L70.884,6.881z M73.846,12.25l-2.595,4.13l-5.762,0.96l4.587-4.583L73.846,12.25z M64.731,16.609l0.96-5.756l4.134-2.591  l-0.509,3.767L64.731,16.609z M69.767,6.238l0.25,0.644l-0.045,0.295l-4.095,2.567l0.946-6.274  C67.865,3.946,68.967,4.909,69.767,6.238z M61.293,5.761l0.485-0.66c0.631-0.677,2.137-2.063,3.822-1.965  c0.132,0.007,0.271,0.029,0.412,0.059l-1.027,6.773l-3.832-1.906L61.293,5.761z M61.106,8.979l3.732,1.856l-0.737,4.422  l-3.237-1.419L61.106,8.979z M60.82,14.738l3.139,1.375l-0.254,1.521l-3.188,3.186L60.82,14.738z M67.085,22.104l-4.216,4.135  l-6.24-0.05l3.755-3.75L67.085,22.104z M59.961,15.014l-0.334,6.694l-3.755,3.751l-0.051-6.234L59.961,15.014z M55.812,18.032  l-0.038-4.668l4.561-5.828l-0.311,6.218C59.993,13.784,55.812,18.032,55.812,18.032z M60.002,5.262l0.352,0.907l-4.591,5.843  l-0.085-10.29C56.75,1.831,58.864,2.418,60.002,5.262z M55.794,27.024l1.048,0.008l2.326,5.273l-7.864-0.799L55.794,27.024z   M55.036,26.294l-4.489,4.483l-0.798-7.855l5.278,2.324L55.036,26.294z M55.02,24.324l-5.368-2.363l-0.558-5.492  c0,0,5.823,2.701,5.895,2.788L55.02,24.324z M49.924,7.359c0.045-0.204,1.033-4.487,4.913-5.591l0.087,10.745l-5.455-3.271  L49.924,7.359z M48.827,11.9l0.436-1.802l5.669,3.381l0.039,4.744l-5.976-2.726l-0.24-1.706L48.827,11.9z M49.23,26.158  l-5.413,6.186l-0.85-6.199l5.561-6.888L49.23,26.158z M47.191,11.948c0.022,0.072,0.054,0.137,0.092,0.198l-0.004-0.001l0.622,1.899  l0.507,4.02l-5.598,6.934l-1.112-8.112l4.714-7.166C46.682,10.389,46.943,11.128,47.191,11.948z M46.012,8.793l-4.493,6.793  L40.028,3.605C41.215,3.562,43.833,4.075,46.012,8.793z M39.052,3.781c0,0.01,0,0.018,0,0.025l1.667,12.15l-6.774-5.568  C34.292,6.794,35.969,4.625,39.052,3.781z M40.886,17.193l1.076,7.826l-7.651-6.987c-0.235-2.352-0.431-4.771-0.431-6.298  C36.013,13.407,40.833,17.186,40.886,17.193z M33.458,25.281l0.607,1.584l0.702,2.792l-3.775,5.551l-1.729-5.91l2.978-6.712  C32.655,23.356,33.065,24.248,33.458,25.281z M31.716,21.685l-2.832,6.323L25.552,17.85C25.912,17.762,28.897,17.178,31.716,21.685z   M21.219,23.766c0-2.817,1.191-4.709,3.536-5.645l3.413,10.436l-6.868-3.531C21.252,24.652,21.218,24.224,21.219,23.766z   M21.579,26.444c-0.004-0.014-0.046-0.155-0.1-0.389l6.989,3.531l1.71,5.846l-7.154-3.528L21.579,26.444z M23.309,32.979  l7.178,3.508l1.779,6.077l-7.046-2.368L23.309,32.979z M20.277,41.913c0.13,0.008,1.662,0.116,3.339,1.758  c-0.005,0.031-0.008,0.063-0.006,0.098l0.261,4.579l-5.041-6.355C19.241,41.876,19.723,41.846,20.277,41.913z M17.19,45.325  c-0.027-0.126-0.06-0.337-0.06-0.624c0-0.353,0.063-1.555,0.867-2.267c0.021-0.019,0.045-0.035,0.068-0.053l5.226,6.594l-4.896-0.32  C17.826,47.331,17.363,46.115,17.19,45.325z M18.771,49.51l5.141,0.285l2.361,3.107l-5.58,0.664  C20.114,52.396,19.404,50.928,18.771,49.51z M16.582,64.361c0-4.286,0.739-7.333,1.926-7.951c0.114-0.06,0.238-0.096,0.372-0.109  l1.381,4.729l-3.677,3.675C16.582,64.597,16.582,64.481,16.582,64.361z M25.645,63.513c-0.62,1.187-3.669,1.923-7.96,1.923  c-0.121,0-0.237,0-0.345-0.002l3.678-3.672l4.735,1.379C25.739,63.273,25.704,63.399,25.645,63.513z M27.692,60.93  c-0.9-0.449-1.489-0.757-1.512-0.77c-0.346-0.179-0.771-0.102-1.029,0.191c-0.258,0.296-0.281,0.726-0.058,1.046  c0.203,0.291,0.358,0.56,0.469,0.809l-3.858-1.132l6.241-6.234l0.445,0.337L27.692,60.93z M28.493,61.329l0.663-5.573l3.112,2.357  l0.284,5.136C31.133,62.617,29.663,61.908,28.493,61.329z M28.548,54.254l1.381-1.387l5.462,0.002l1.643,4.7l-4.386-0.202  L28.548,54.254z M39.636,64.021c-0.714,0.804-1.917,0.867-2.268,0.867c-0.291,0-0.501-0.033-0.626-0.06  c-0.792-0.174-2.007-0.635-3.333-1.205l-0.321-4.89l6.601,5.22C39.669,63.978,39.654,64.001,39.636,64.021z M40.078,63.19  l-6.362-5.035l4.584,0.26c0.034,0.002,0.066-0.001,0.097-0.006c1.645,1.675,1.752,3.206,1.761,3.338  C40.225,62.298,40.195,62.779,40.078,63.19z M37.336,55.606l-2.351-7.157l3.621,1.058l2.312,7.047L37.336,55.606z M41.876,56.808  l-2.373-7.039l6.085,1.778l3.512,7.17L41.876,56.808z M55.643,60.443L50.177,59l-3.532-7.146l5.852,1.711l3.535,6.979  C55.799,60.492,55.657,60.447,55.643,60.443z M58.325,60.805c-0.458,0.001-0.888-0.035-1.263-0.081l-3.535-6.86l10.447,3.408  C63.039,59.613,61.145,60.805,58.325,60.805z M64.247,56.475l-10.169-3.326l6.33-2.831C64.92,53.132,64.336,56.116,64.247,56.475z   M57.293,46.957l-7.506-7.893l5.971,0.84c0.061,0.043,4.638,5.214,6.81,7.668C60.022,47.301,57.818,47.021,57.293,46.957z   M64.063,47.728l-6.993-7.644l7.834,1.074c0.006,0.054,3.789,4.869,5.464,6.999C68.84,48.156,66.419,47.961,64.063,47.728z   M71.716,48.092l-5.574-6.767l12.164,1.665c0.008,0.001,0.016,0,0.024,0.001C77.486,46.069,75.314,47.746,71.716,48.092z   M78.507,42.016l-11.993-1.489l6.799-4.489C78.036,38.216,78.551,40.83,78.507,42.016z M74.748,32.13l-1.885,0.454l-3.273-5.449  l10.756,0.087C79.242,31.098,74.953,32.085,74.748,32.13z M70.092,26.298l5.849-4.586l0.908,0.351  c2.847,1.138,3.435,3.25,3.543,4.319L70.092,26.298z M105.121,46.847c0.134,0.107,0.344,0.277-0.025-0.019  c-0.09-0.073-0.064-0.053-0.008-0.008c-1.335-1.09-1.84-3.652-2.374-5.174c-0.811-2.311-1.566-4.646-2.468-6.922  c-0.316-0.796-0.733-1.99-1.601-2.348c-0.803-0.331-1.423,0.708-1.699,1.281c-1.09,2.261-1.646,4.865-2.526,7.219  c-0.779,2.085-1.274,4.855-3.137,6.257c-1.142,0.859,0.399,1.113,1.117,1.169c0.605,0.048,1.213,0.061,1.819,0.064  c0.576,0.004,1.081-0.006,0.635-0.573c-0.801-1.016-0.724-2.214-0.284-3.399c0.42-1.128,1.075-1.455,2.25-1.475  c1.312-0.022,3.482-0.481,4.106,0.961c0.371,0.857,0.819,2.015,0.819,2.966c0,0.562-0.857,0.689-0.857,1.12  c0,0.405,0.797,0.407,1.043,0.418c0.961,0.042,1.951,0.026,2.906-0.077c0.353-0.04,0.915-0.084,1.097-0.443  C106.126,47.487,105.37,47.035,105.121,46.847z M99.456,41.862c-0.522,0.002-3.773,0.205-3.723-0.326  c0.072-0.756,0.437-1.542,0.685-2.25c0.176-0.504,1.293-4.349,1.623-4.349c0.26,0,1.263,3.691,1.349,3.953  c0.243,0.733,0.488,1.466,0.707,2.208C100.278,41.715,100.214,41.862,99.456,41.862z M105.121,46.847  c-0.013-0.011-0.021-0.018-0.033-0.026c0.003,0.002,0.005,0.006,0.008,0.008C105.102,46.833,105.113,46.841,105.121,46.847z   M117.91,40.231c0.152,0.075,0.293,0.144-0.013-0.007c-0.283-0.138-0.183-0.089-0.046-0.022c-0.29-0.139-0.595-0.271-0.862-0.449  c-0.113-0.074,0.417-0.339,0.508-0.392c0.695-0.397,1.317-0.953,1.67-1.681c0.817-1.687,0.103-3.861-1.558-4.727  c-0.458-0.24-0.992-0.34-1.498-0.421c-0.822-0.131-1.659-0.184-2.49-0.216c-1.178-0.045-2.36-0.044-3.539-0.044  c-0.522,0-1.095-0.051-1.607,0.063c-0.178,0.039-0.501,0.149-0.436,0.396c0.102,0.387,0.782,0.568,1.068,0.779  c0.492,0.363,0.505,0.937,0.547,1.503c0.057,0.773,0.064,1.554,0.055,2.329c-0.024,1.836,0.085,3.67,0.085,5.506  c0,0.924-0.004,1.852-0.074,2.773c-0.041,0.533-0.076,1.08-0.462,1.492c-0.305,0.326-0.744,0.41-1.072,0.69  c-0.219,0.187-0.294,0.477,0.019,0.595c0.424,0.16,0.955,0.097,1.403,0.093c0.857-0.007,1.715-0.018,2.572-0.021  c0.907-0.004,1.817,0.049,2.724,0.009c2.068-0.09,4.312-0.766,5.176-2.849c0.346-0.835,0.421-1.909,0.183-2.784  C119.938,41.649,118.994,40.767,117.91,40.231z M111.839,37.649c0-0.526,0.008-1.05,0.018-1.575c0.01-0.67-0.016-1.406,0.166-2.059  c0.165-0.588,1.06-0.559,1.541-0.566c0.727-0.011,1.46-0.001,2.146,0.271c0.799,0.319,1.415,0.936,1.572,1.799  c0.119,0.665,0.086,1.479-0.18,2.1c-0.674,1.579-2.627,1.743-4.113,1.743c-0.457,0-1.113-0.045-1.113-0.645  C111.833,38.36,111.83,38.007,111.839,37.649z M114.545,47.226c-0.518,0-1.059,0.017-1.569-0.075  c-0.602-0.107-0.93-0.403-1.014-0.994c-0.172-1.203-0.123-2.446-0.123-3.661c0-0.515-0.084-1.162,0.097-1.65  c0.177-0.477,1.12-0.321,1.535-0.321c1.141,0,2.359,0.086,3.322,0.766c0.995,0.704,1.31,1.836,1.31,3.002  C118.103,46.291,116.346,47.226,114.545,47.226z M132.202,40.9c-0.15-0.134-0.103-0.091-0.006-0.004  c-0.548-0.481-1.233-0.815-1.882-1.132c-0.878-0.427-1.776-0.8-2.658-1.214c-1.381-0.649-2.875-1.876-2.204-3.597  c0.615-1.586,2.727-1.941,4.186-1.401c0.794,0.294,1.419,0.894,1.878,1.59c0.164,0.248,0.78,1.68,1.198,0.955  c0.208-0.361,0.128-0.889,0.114-1.285c-0.013-0.415-0.035-0.833-0.117-1.242c-0.059-0.3-0.156-0.6-0.432-0.768  c-0.388-0.238-0.924-0.146-1.358-0.191c-1.005-0.102-1.964-0.415-2.981-0.364c-0.935,0.047-1.863,0.288-2.658,0.795  c-1.561,0.996-2.291,2.941-1.759,4.729c0.529,1.771,2.505,2.637,4.05,3.328c1.323,0.592,3.188,1.206,3.796,2.666  c0.32,0.764,0.24,1.736-0.207,2.434c-0.481,0.753-1.362,1.18-2.228,1.296c-0.994,0.134-1.992-0.087-2.853-0.602  c-0.864-0.517-1.36-1.305-1.89-2.134c-0.214-0.334-0.773-1.249-1.02-0.397c-0.189,0.658-0.098,1.567-0.006,2.228  c0.075,0.553,0.24,1.64,0.991,1.612c0.403-0.017,0.822-0.071,1.221,0.001c0.815,0.145,1.605,0.413,2.432,0.503  c0.661,0.07,1.374,0.041,2.023-0.084c1.761-0.335,3.364-1.661,3.738-3.463c0.338-1.602-0.135-3.146-1.359-4.247  C132.429,41.104,132.849,41.478,132.202,40.9z M146.732,32.52C146.546,32.434,146.607,32.463,146.732,32.52L146.732,32.52z   M147.026,32.655C147.138,32.706,147.186,32.728,147.026,32.655L147.026,32.655z M146.872,32.584  c-1.63-0.747-3.724-0.863-5.419-0.245c-1.884,0.687-3.339,2.202-4.184,3.992c-1.511,3.201-1.091,7.406,1.195,10.135  c1.735,2.07,4.676,2.811,7.234,2.144c1.818-0.472,3.318-1.719,4.281-3.312c1.032-1.706,1.396-3.693,1.305-5.668  C151.152,36.741,149.576,33.823,146.872,32.584z M146.783,46.382c-1.284,1.32-3.296,1.71-4.923,0.775  c-1.67-0.96-2.552-2.929-2.868-4.758c-0.293-1.698-0.242-3.611,0.267-5.262c0.424-1.376,1.216-2.819,2.537-3.51  c1.323-0.689,2.891-0.652,4.139,0.193c2.268,1.535,2.719,4.606,2.719,7.126C148.653,42.822,148.128,44.998,146.783,46.382z   M165.814,44.28c-0.374,0-0.772,0.727-0.939,0.975c-0.327,0.481-0.704,0.999-1.205,1.314c-1.197,0.755-2.589,0.806-3.961,0.702  c-2.141-0.164-1.819-2.547-1.854-4.182c-0.032-1.498-0.014-2.997-0.014-4.496c0-1.303-0.354-3.76,0.673-4.754  c0.329-0.319,1.764-1.051,0.675-1.317c-0.973-0.239-2.023-0.166-3.017-0.179c-0.548-0.007-1.103-0.04-1.65-0.003  c-1.48,0.1-0.424,0.809,0.252,1.177c0.696,0.373,0.703,1.121,0.737,1.806c0.052,1.105,0.05,2.213,0.05,3.318  c0,1.104-0.009,2.208-0.025,3.313c-0.012,0.859-0.012,1.72-0.03,2.582c-0.012,0.521-0.019,1.056-0.106,1.572  c-0.13,0.756-0.673,1.157-1.134,1.708c-0.622,0.748,1.314,0.736,1.654,0.736c0.669,0,1.341,0.004,2.01-0.001  c1.787-0.014,3.581-0.027,5.364-0.105c0.54-0.023,1.869,0.089,2.216-0.477C165.687,47.68,166.534,44.28,165.814,44.28z   M179.391,32.46c-0.604-0.014-1.213-0.052-1.816-0.029c-0.16,0.007-0.934-0.01-0.934,0.288c-0.02,0.139,0.45,0.523,0.529,0.658  c0.748,0.917-0.139,2.913-0.432,3.842c-0.775,2.461-1.613,4.945-2.605,7.327c-0.018,0.043-0.356,0.851-0.483,0.684  c-0.265-0.347-0.394-0.869-0.545-1.266c-0.538-1.415-1.069-2.833-1.58-4.26c-0.573-1.604-1.203-3.239-1.538-4.915  c-0.149-0.743,0.027-1.121,0.572-1.671c0.815-0.828-1.864-0.752-2.15-0.75c-0.752,0.007-2.003-0.127-2.677,0.315  c-0.527,0.348,1.436,1.702,1.61,2.077c0.895,1.929,1.531,4.014,2.263,6.007c0.832,2.266,1.428,4.872,2.626,6.972  c1.499,2.625,2.757-1.73,3.194-2.915c1.032-2.794,1.977-5.621,3.046-8.4c0.338-0.875,0.63-1.794,1.334-2.451  c0.229-0.213,1.058-0.672,0.917-1.082C180.564,32.438,179.757,32.46,179.391,32.46z M194.168,47.819  c0.223-0.312,1.225-2.788,0.428-2.788c-0.179,0-0.59,0.526-0.698,0.632c-0.387,0.37-0.744,0.752-1.221,1.008  c-1.122,0.602-2.504,0.653-3.748,0.586c-1.095-0.061-1.8-0.421-2.102-1.536c-0.299-1.101-0.571-2.826-0.156-3.908  c0.411-1.072,2.1-0.933,2.986-0.673c0.509,0.148,1.514,1.645,1.913,1.264c0.597-0.564,0.34-2.278,0.296-2.98  c-0.033-0.517-0.241-2.257-1.125-1.294c-0.726,0.561-1.052,1.021-2.108,1.021c-1.486,0-2.037-0.497-1.979-1.979  c0.036-0.901,0.052-2.322,0.734-3.021c0.817-0.835,2.64-0.511,3.669-0.342c1.165,0.192,1.774,0.784,2.583,1.569  c0.661,0.641,0.354-1.893,0.082-2.298c-0.743-1.113-3.18-0.713-4.351-0.686c-1.708,0.038-3.424-0.014-5.13,0.117  c-0.457,0.036-1.984,0.197-1.126,0.912c0.478,0.555,1.02,0.702,1.13,1.58c0.186,1.458,0.098,2.985,0.102,4.449  c0.006,2.01,0.044,4.033-0.083,6.041c-0.034,0.542-0.1,1.072-0.491,1.496c-0.208,0.225-1.176,0.519-1.017,0.912  c0.261,0.65,1.769,0.57,2.324,0.596c1.13,0.055,2.266,0.025,3.396,0.039c1.354,0.015,2.716,0.054,4.066-0.044  C193.201,48.447,193.755,48.401,194.168,47.819z M209.636,32.508c-0.309,0-1.085-0.058-1.277,0.285  c-0.131,0.232,0.521,0.51,0.691,0.623c0.606,0.406,0.605,1.376,0.65,2.025c0.175,2.516,0.158,5.079,0.053,7.598  c-0.005,0.09-0.007,1.254-0.164,1.254c-0.23,0-0.685-0.772-0.799-0.922c-1.579-2.059-3.045-4.203-4.558-6.311  c-0.917-1.28-1.834-2.993-3.128-3.948c-0.73-0.538-1.543-0.643-2.42-0.627c-1.077,0-2.089,0.306-0.786,1.174  c1.438,0.959,0.994,3.591,1.004,5.054c0.018,2.344,0.104,4.733-0.11,7.069c-0.087,0.944-0.546,1.417-1.294,1.958  c-1.139,0.82,0.915,0.769,1.473,0.764c0.742-0.008,1.985,0.126,2.647-0.316c0.352-0.232-1.003-1.577-1.126-2.007  c-0.382-1.33-0.192-2.99-0.211-4.359c-0.021-1.654-0.054-3.313,0.042-4.964c0.004-0.068,0.063-1.158,0.209-1.092  c0.343,0.155,0.65,0.728,0.865,1.012c1.549,2.04,2.979,4.169,4.449,6.264c0.949,1.356,1.86,2.782,2.947,4.034  c0.274,0.316,1.437,1.729,1.999,1.235c0.497-0.439,0.312-1.54,0.305-2.155c-0.023-2.208,0.02-4.415,0.042-6.623  c0.016-1.454-0.276-3.417,0.354-4.792c0.251-0.548,1.46-1.327,0.928-1.903C211.646,32.413,210.48,32.508,209.636,32.508z   M227.545,32.625c-0.427-0.394-1.387-0.306-1.904-0.306c-2.336,0.009-4.672,0-7.006,0c-0.81,0-2.961-0.274-3.44,0.434  c-0.501,0.735-0.488,2.186-0.384,3.014c0.165,1.326,1.087-0.697,1.304-0.951c0.697-0.815,1.884-1.111,2.921-1.004  c0.816,0.083,0.971,0.91,1.022,1.599c0.179,2.398,0.109,4.832,0.083,7.236c-0.014,1.381,0.399,4.033-1.094,4.837  c-1.103,0.594-0.712,1.05,0.341,1.087c0.614,0.021,1.23-0.004,1.846-0.007c0.415,0,3.043,0.329,3.043-0.481  c0-0.397-1.128-0.803-1.361-1.118c-0.245-0.325-0.279-0.734-0.316-1.123c-0.3-3.087-0.184-6.259-0.108-9.355  c0.02-0.766-0.081-1.87,0.491-2.479c0.999-1.063,3.088,0.236,3.718,1.123c0.119,0.168,0.734,1.422,1.047,0.866  c0.258-0.461,0.135-1.355,0.114-1.862C227.842,33.727,227.882,32.939,227.545,32.625z M243.333,40.459  c0.011-1.741-0.026-3.486,0.036-5.227c0.018-0.467,0.126-0.886,0.465-1.239c0.211-0.221,1.785-1.012,0.895-1.424  c0.033,0.015,0.051,0.022-0.006-0.003c-0.199-0.09-0.076-0.034-0.004-0.001c-0.758-0.339-1.832-0.21-2.635-0.21  c-0.577,0-2.245-0.029-1.328,0.81c1.249,1.143,1.092,3.098,1.146,4.665c0.077,2.363,0.347,5.186-0.492,7.455  c-0.866,2.347-4.229,2.928-6.13,1.512c-1.76-1.311-1.561-3.915-1.575-5.859c-0.012-1.407-0.008-2.815,0.061-4.22  c0.048-1.027-0.029-2.369,0.646-3.219c0.109-0.138,0.854-0.711,0.697-0.927c-0.207-0.289-0.955-0.216-1.242-0.216  c-0.672-0.01-1.35,0.012-2.021,0.034c-0.419,0.014-1.89-0.061-2.08,0.501c-0.177,0.521,1.45,0.959,1.531,1.691  c0.354,3.126-0.066,6.308,0.224,9.443c0.382,4.116,4.567,5.587,8.173,4.494C243.404,47.391,243.313,43.643,243.333,40.459z"/>
</svg>